<svg xmlns="http://www.w3.org/2000/svg" viewBox="0 0 1000 1000"><defs><style>.cls-1{fill:#069;}.cls-2{fill:#17a;}.cls-3{fill:#eee;}.cls-4{fill:#ddd;}.cls-5{fill:#28b;}</style></defs><title>logo</title><g id="Layer_1" data-name="Layer 1"><circle class="cls-1" cx="500" cy="500" r="500"/></g><g id="Layer_5" data-name="Layer 5"><path class="cls-2" d="M500,500,823.59,812.88a449.5,449.5,0,0,0,109-189.12Z"/><path class="cls-2" d="M67.36,376.24,500,500,176.41,187.12A449.5,449.5,0,0,0,67.36,376.24Z"/></g><g id="Layer_3" data-name="Layer 3"><path class="cls-3" d="M750,500H250V933.1a500.57,500.57,0,0,0,500,0Z"/><rect class="cls-3" x="345.5" y="250" width="309" height="59"/><polygon class="cls-4" points="654.5 309 345.5 309 250 500 750 500 654.5 309"/></g><g id="Layer_4" data-name="Layer 4"><circle class="cls-5" cx="500" cy="750" r="100"/><rect class="cls-5" x="550" y="500" width="50" height="250"/><rect class="cls-5" x="550" y="450" width="100" height="50"/></g></svg>